<svg xmlns="http://www.w3.org/2000/svg" fill="#ffffff" viewBox="0 0 100 70.42"><title>WeConnectLogo</title><g id="Layer_2" data-name="Layer 2"><g id="Layer_1-2" data-name="Layer 1"><path d="M58.53,48.1A43.44,43.44,0,0,1,56.6,35.23c0-.39,0-.77,0-1.15s0-.77,0-1.15c0-.23,0-.47,0-.69s0-.48,0-.71c.09-1.14.23-2.26.42-3.37,0-.29.09-.57.15-.85s.07-.4.12-.6.1-.5.15-.76c.2-.9.41-1.79.67-2.66.06-.2.11-.4.17-.59l.24-.78c.11-.35.23-.7.36-1s.24-.69.37-1,.26-.69.4-1l.42-1c.14-.33.3-.67.46-1l.47-1,.55-1.07c.15-.29.31-.57.46-.84.35-.63.73-1.26,1.12-1.87.18-.31.38-.61.58-.91s.36-.53.55-.79.33-.48.51-.73.34-.46.51-.7L66,8.22A4.79,4.79,0,0,0,64.28,1L62.69.19h0A14.52,14.52,0,0,0,60.19,0H14.84a14.7,14.7,0,0,0-13,21.85L24.67,62.79a14.69,14.69,0,0,0,25.3.64,14.5,14.5,0,0,0,13.38,7,4.57,4.57,0,0,0,3.19-7.47A43.3,43.3,0,0,1,58.53,48.1Z"/><path d="M95.65,4.22A35.09,35.09,0,0,0,71.39,37.57c0,.32,0,.64,0,1A34.79,34.79,0,0,0,78,58L98.13,21.74A14.59,14.59,0,0,0,95.65,4.22Z"/></g></g></svg>